# xmcd
#
# Track frame offsets:
# 150
# 17747
# 36757
# 54740
# 74655
# 91913
# 109300
# 127736
# 147222
# 164729
# 181182
# 202598
# 218855
# 237037
# 263998
# 284777
# 306345
#
# Disc length: 4322 seconds
#
#
# Revision: 0
# Processed by: cddbd v1.5.1PL0 Copyright (c) Steve Scherf et al.
# Submitted via: FreeRIP 2.90 
#
DISCID=fd10e011
DTITLE=Johnny Hiland - Red Hot and Rippin
DYEAR=1900
DGENRE=Country
TTITLE0=Turn it up
TTITLE1=In your face
TTITLE2=Bakersfield bound
TTITLE3=Truth hurts
TTITLE4=Minor adjustment
TTITLE5=Vibe thing
TTITLE6=Swinging the strings
TTITLE7=Nuclear chicken
TTITLE8=Celtic country
TTITLE9=Song for Brandy
TTITLE10=Gatton to it
TTITLE11=Until we meet again
TTITLE12=Six string stomp
TTITLE13=Chicken funk
TTITLE14=Tonal Emersion
TTITLE15=Johnny's jazz
TTITLE16=Orange blossom special
EXTD=
EXTT0=
EXTT1=
EXTT2=
EXTT3=
EXTT4=
EXTT5=
EXTT6=
EXTT7=
EXTT8=
EXTT9=
EXTT10=
EXTT11=
EXTT12=
EXTT13=
EXTT14=
EXTT15=
EXTT16=
PLAYORDER=
